<svg width="71" height="71" viewBox="0 0 71 71" fill="none" xmlns="http://www.w3.org/2000/svg">
<g filter="url(#filter0_f_9_17)">
<g filter="url(#filter1_d_9_17)">
<path d="M22.1129 38.9242C22.112 41.3609 22.7309 43.7395 23.9072 45.8361L22 53L29.1266 51.0776C31.0902 52.1792 33.3009 52.7598 35.5507 52.7606H35.5565C42.9656 52.7606 48.9969 46.5579 49 38.9354C49.0012 35.2411 47.6041 31.7675 45.0661 29.1544C42.5277 26.5413 39.1525 25.1014 35.5565 25.0998C28.1462 25.0998 22.1158 31.3016 22.1129 38.9242V38.9242Z" fill="black"/>
</g>
<path d="M22.1129 38.9242C22.112 41.3609 22.7309 43.7395 23.9072 45.8361L22 53L29.1266 51.0776C31.0902 52.1792 33.3009 52.7598 35.5507 52.7606H35.5565C42.9656 52.7606 48.9969 46.5579 49 38.9354C49.0012 35.2411 47.6041 31.7675 45.0661 29.1544C42.5277 26.5413 39.1525 25.1014 35.5565 25.0998C28.1462 25.0998 22.1158 31.3016 22.1129 38.9242V38.9242Z" fill="black" fill-opacity="0.2"/>
</g>
<path d="M22.5953 38.7802C22.5946 41.1237 23.1914 43.412 24.3263 45.429L22.4867 52.3207L29.3606 50.4714C31.2544 51.5305 33.3866 52.0893 35.5567 52.0901H35.5625C42.7085 52.0901 48.5256 46.1237 48.5286 38.7906C48.53 35.237 47.1825 31.8957 44.7341 29.3819C42.2863 26.8681 39.0306 25.483 35.562 25.4814C28.415 25.4814 22.5982 31.4473 22.5953 38.7803" fill="url(#paint0_linear_9_17)"/>
<path d="M22.1323 38.7757C22.1315 41.2038 22.7498 43.5739 23.9251 45.6632L22.0196 52.8018L29.14 50.8862C31.1018 51.9839 33.3105 52.5624 35.5584 52.5632H35.5642C42.9667 52.5632 48.9927 46.3824 48.9958 38.7869C48.9971 35.1056 47.6012 31.6442 45.0654 29.0403C42.5293 26.4364 39.157 25.0017 35.5642 25C28.1604 25 22.1353 31.1799 22.1323 38.7757H22.1323ZM26.3726 45.3034L26.1068 44.8703C24.9892 43.0471 24.3992 40.9402 24.4002 38.7766C24.4026 32.4632 29.4104 27.327 35.5684 27.327C38.5505 27.3282 41.3532 28.5208 43.4612 30.685C45.569 32.8492 46.7289 35.7262 46.728 38.7859C46.7254 45.0996 41.7173 50.2366 35.5642 50.2366H35.5599C33.5563 50.2355 31.5914 49.6836 29.8777 48.6402L29.4699 48.3922L25.2445 49.5288L26.3726 45.3034Z" fill="url(#paint1_linear_9_17)"/>
<path fill-rule="evenodd" clip-rule="evenodd" d="M32.2072 33.0167C31.9558 32.4433 31.6911 32.4318 31.4519 32.4217C31.2563 32.4132 31.0323 32.4137 30.8088 32.4137C30.585 32.4137 30.2214 32.4999 29.9139 32.8445C29.6062 33.1891 28.7391 34.022 28.7391 35.7161C28.7391 37.4105 29.9419 39.0474 30.1095 39.2773C30.2773 39.507 32.4313 43.0946 35.8425 44.4748C38.6776 45.6218 39.2545 45.3937 39.8698 45.3363C40.4852 45.2789 41.8554 44.5035 42.1351 43.6995C42.4148 42.8955 42.4148 42.2064 42.3309 42.0624C42.247 41.9188 42.0232 41.8328 41.6876 41.6606C41.3519 41.4884 39.702 40.6552 39.3943 40.5404C39.0866 40.4257 38.8628 40.3683 38.6391 40.713C38.4153 41.0574 37.7726 41.8328 37.5767 42.0624C37.3809 42.2925 37.1852 42.3212 36.8495 42.149C36.5138 41.9763 35.4329 41.613 34.1506 40.44C33.1529 39.5274 32.4794 38.4003 32.2835 38.0556C32.0878 37.7112 32.2626 37.5246 32.4309 37.353C32.5816 37.1987 32.7666 36.9511 32.9344 36.75C33.1019 36.5489 33.1579 36.4054 33.2697 36.1758C33.3816 35.9459 33.3257 35.7448 33.2418 35.5726C33.1579 35.4004 32.5056 33.6975 32.2072 33.0167" fill="white"/>
<defs>
<filter id="filter0_f_9_17" x="18.5863" y="21.6861" width="33.8274" height="34.7276" filterUnits="userSpaceOnUse" color-interpolation-filters="sRGB">
<feFlood flood-opacity="0" result="BackgroundImageFix"/>
<feBlend mode="normal" in="SourceGraphic" in2="BackgroundImageFix" result="shape"/>
<feGaussianBlur stdDeviation="1.70686" result="effect1_foregroundBlur_9_17"/>
</filter>
<filter id="filter1_d_9_17" x="0.664278" y="0.350416" width="69.6714" height="70.5716" filterUnits="userSpaceOnUse" color-interpolation-filters="sRGB">
<feFlood flood-opacity="0" result="BackgroundImageFix"/>
<feColorMatrix in="SourceAlpha" type="matrix" values="0 0 0 0 0 0 0 0 0 0 0 0 0 0 0 0 0 0 127 0" result="hardAlpha"/>
<feOffset dy="-3.41372"/>
<feGaussianBlur stdDeviation="10.6679"/>
<feColorMatrix type="matrix" values="0 0 0 0 0 0 0 0 0 0 0 0 0 0 0 0 0 0 0.21 0"/>
<feBlend mode="normal" in2="BackgroundImageFix" result="effect1_dropShadow_9_17"/>
<feBlend mode="normal" in="SourceGraphic" in2="effect1_dropShadow_9_17" result="shape"/>
</filter>
<linearGradient id="paint0_linear_9_17" x1="35.5076" y1="52.3207" x2="35.5076" y2="25.4814" gradientUnits="userSpaceOnUse">
<stop stop-color="#20B038"/>
<stop offset="1" stop-color="#60D66A"/>
</linearGradient>
<linearGradient id="paint1_linear_9_17" x1="35.5078" y1="52.8018" x2="35.5078" y2="25.0001" gradientUnits="userSpaceOnUse">
<stop stop-color="#F9F9F9"/>
<stop offset="1" stop-color="white"/>
</linearGradient>
</defs>
</svg>
